# xmcd
#
# Track frame offsets: 
#        150
#        21214
#        36987
#        59856
#        78307
#        94806
#        116586
#        136688
#        160549
#        177432
#        201211
#        220287
#        243725
#        261150
#
# Disc length: 3689 seconds
#
# Revision: 1
# Processed by: cddbd v1.5.2PL0 Copyright (c) Steve Scherf et al.
# Submitted via: ExactAudioCopy v1.3
#
DISCID=c90e670e
DTITLE=Various Artist - Soul Bag Sampler, Dec 2009
DYEAR=1900
DGENRE=
TTITLE0=The Dynamites feat. Charles Walker - The Real Deal
TTITLE1=Eddie C. Campbell - Big World
TTITLE2=Johnnie Bassett - A Woman's Got Ways
TTITLE3=Lee Fields and The Expressions - Honey Dove
TTITLE4=Mighty Sam McClain - Too Much Jesus (Not Enough Whiskey)
TTITLE5=Marquise Knox - She's The One
TTITLE6=Big James and The Chicago Playboys - Right Here Right Now
TTITLE7=Big Daddy Wilson - Ain't No Slave
TTITLE8=Rick Estrin and The Nightcats - Walk All Day
TTITLE9=Little Joe Washington - Ike
TTITLE10=Mountain Men - Time Is Coming
TTITLE11=Nico Wayne Toussaint - Blues entre les dents
TTITLE12=Charles Wilson - Somebody's Tears (tribute to Little Milton)
TTITLE13=Candye Kane - Who's Been Sleeping In My Bed
EXTD=Soul Bag #196, octobre 2009
EXTT0=
EXTT1=
EXTT2=
EXTT3=
EXTT4=
EXTT5=
EXTT6=
EXTT7=
EXTT8=
EXTT9=
EXTT10=
EXTT11=
EXTT12=
EXTT13=
PLAYORDER=
